<svg width="113" height="94" viewBox="0 0 113 94" fill="none" xmlns="http://www.w3.org/2000/svg">
<path fill-rule="evenodd" clip-rule="evenodd" d="M106.66 0.0390914C108.364 -0.117274 109.757 0.195457 110.996 0.977285C112.699 2.22821 113.473 4.41733 112.699 6.45008C112.235 8.32647 111.306 10.0465 110.377 11.4538C109.138 13.3302 107.744 15.0502 105.576 16.9266C104.26 18.0211 102.983 19.1157 101.705 20.2102C100.428 21.3048 99.1506 22.3994 97.8344 23.4939L94.5828 26.3085C93.8086 26.934 93.4989 27.5594 93.6537 28.654C93.8086 29.7485 93.9634 30.8822 94.1182 32.0158C94.2731 33.1495 94.4279 34.2831 94.5828 35.3777L98.299 62.7417C98.4538 63.9926 98.6086 65.7126 98.1441 67.589C97.5247 69.9345 95.9763 71.6545 93.4989 72.9054C93.1892 73.2182 92.7247 73.3745 92.2602 73.5309C91.6408 73.8436 91.0214 74 90.4021 74C88.8536 74 87.6149 73.0618 86.8407 71.3418C86.5723 70.7998 86.3556 70.2055 86.1309 69.5892C85.9667 69.1388 85.7981 68.6767 85.602 68.2145L78.4793 49.7633C77.8599 47.887 76.9309 46.1669 75.847 44.4469L75.3825 43.6651L73.3695 45.2287C70.8 47.3246 68.1674 49.3567 65.5119 51.4064C64.0069 52.5682 62.4946 53.7356 60.9822 54.9234L61.9113 58.6762L62.221 60.0835C62.8403 61.9599 62.6855 63.6799 62.0661 65.2435C61.4468 67.1199 60.0532 68.3708 58.1951 68.9963C56.7891 69.4222 55.6384 68.8168 54.9749 68.4677C54.9077 68.4323 54.8455 68.3996 54.7886 68.3708C54.1692 68.0581 53.7047 67.589 53.2402 66.9635C49.6788 62.5853 46.1175 58.0507 42.711 53.5161L39.769 49.7633L39.769 49.7633C39.4593 49.4506 39.1496 49.1379 38.8399 48.6688C37.6012 47.1051 37.7561 45.3851 39.1496 43.9778L39.1497 43.9778C39.9239 43.1959 40.6981 42.4141 41.4722 41.7887C42.8658 40.5378 44.7239 40.3814 46.4272 41.1632C47.1239 41.476 47.782 41.8278 48.4401 42.1796C49.0982 42.5314 49.7562 42.8833 50.453 43.196L52.1563 43.9778C52.2337 43.9778 52.3111 44.0169 52.3885 44.056C52.466 44.0951 52.5434 44.1342 52.6208 44.1342C53.1628 43.5869 53.7047 43.0787 54.2466 42.5705C54.7886 42.0623 55.3305 41.5541 55.8725 41.0069L65.9372 31.3122C65.7823 31.0777 65.6275 30.8822 65.4726 30.6867C65.3178 30.4913 65.1629 30.2958 65.0081 30.0613C63.6946 28.44 61.9683 27.2355 60.0887 25.924C59.9742 25.8441 59.8591 25.7639 59.7435 25.683C57.1112 23.8067 54.4402 21.9694 51.7692 20.1321C49.0982 18.2948 46.4272 16.4575 43.7949 14.5811C43.3303 14.2684 42.711 13.7993 42.0916 13.1738C40.5432 11.7665 40.2335 9.89012 41.3174 8.1701C42.2464 6.45008 43.64 4.88642 45.3433 3.6355C46.2723 2.85367 47.8207 2.22821 49.9885 2.85367C51.0724 3.1664 52.0014 3.47913 52.9305 3.79186L52.9305 3.79186L81.8858 14.7375C82.5052 14.8938 83.1245 15.0502 83.589 15.2066C84.5181 15.3629 85.1375 15.0502 85.9117 14.4247C86.2988 14.0338 86.6859 13.682 87.073 13.3302C87.4601 12.9783 87.8472 12.6265 88.2343 12.2356L91.9505 8.95193C94.5828 6.76281 96.9054 4.88642 98.9183 3.32277C101.241 1.60275 103.718 0.508188 106.66 0.0390914ZM107.744 10.0465C108.518 8.79556 109.293 7.38827 109.757 5.82462C110.067 4.88642 109.757 3.94823 109.138 3.79186C108.518 3.47913 107.899 3.32277 107.125 3.47913C104.802 3.79186 102.635 4.73006 100.776 6.13735C99.3642 7.23434 97.8758 8.48525 96.2043 9.89008C95.4932 10.4877 94.749 11.1132 93.9634 11.7665L90.2472 15.0502C89.8601 15.4411 89.473 15.7929 89.0859 16.1447C88.6988 16.4966 88.3117 16.8484 87.9246 17.2393C86.531 18.4902 84.8278 18.9593 83.1245 18.6466C83.0052 18.6165 82.8802 18.5864 82.7505 18.5551C82.2069 18.4242 81.5818 18.2736 80.9567 18.0211L52.0014 7.07554C51.2272 6.76281 50.2982 6.45008 49.2143 6.13735C48.1304 5.82462 47.6659 5.98098 47.3562 6.29371C45.9626 7.38827 44.7239 8.6392 43.9497 10.0465C43.64 10.3592 43.64 10.5156 44.1045 10.9847C44.5691 11.4538 45.0336 11.7665 45.4981 12.0792C50.7627 15.832 56.1822 19.5848 61.4468 23.1812C63.6145 24.5885 65.6275 26.1521 67.3307 28.1849C67.6203 28.4774 67.8498 28.8306 68.0941 29.2068C68.2416 29.4339 68.3945 29.6694 68.5695 29.9049C68.6469 30.0613 68.7243 30.1786 68.8017 30.2958C68.8791 30.4131 68.9566 30.5304 69.034 30.6867L69.8082 31.7813L68.5695 33.0322L57.8854 43.196C57.266 43.8214 56.6467 44.4078 56.0273 44.9942C55.4079 45.5806 54.7886 46.1669 54.1692 46.7924C53.395 47.4179 52.466 47.5742 51.6918 47.1051L50.7627 46.636L49.0595 45.8542C47.6659 45.0724 46.4272 44.4469 45.0336 43.8214C44.4142 43.5087 43.7949 43.5087 43.3303 43.9778C42.711 44.4469 41.9368 45.2287 41.3174 45.8542L41.3174 45.8542L41.0077 46.1669C41.0077 46.1669 41.0077 46.3233 41.1626 46.4797C41.2455 46.6054 41.3174 46.7198 41.3841 46.8261C41.5663 47.1163 41.7101 47.3453 41.9368 47.5742L44.8787 51.327C48.2853 55.8616 51.6918 60.2398 55.2531 64.7744C55.4079 65.0872 55.7176 65.3999 56.0273 65.5563C56.4918 65.869 56.8015 65.869 56.8015 65.869C57.8854 65.5563 58.5048 64.9308 58.9693 63.9926C59.4338 63.0544 59.4338 61.9599 59.1241 60.7089L58.8145 59.3016C58.6596 58.598 58.4661 57.8943 58.2725 57.1907C58.079 56.4871 57.8854 55.7834 57.7306 55.0798C57.5757 54.4543 57.4209 53.5161 58.5048 52.7343C59.2608 52.1405 60.0219 51.5415 60.7871 50.9394C64.2535 48.2115 67.8051 45.4168 71.3566 42.7269L76.1567 39.1305L77.5502 41.1632L78.4793 42.7269L78.4793 42.7269C79.5632 44.6033 80.6471 46.4797 81.4213 48.5124L88.2343 66.9636C88.4304 67.4257 88.599 67.8879 88.7632 68.3383C88.9879 68.9546 89.2046 69.5488 89.473 70.0909C89.7827 70.8727 90.0924 71.0291 91.0214 70.7163C91.4859 70.56 91.7956 70.4036 92.1053 70.2472C93.6537 69.4654 94.5828 68.3708 95.0473 66.9636C95.357 66.0254 95.357 64.9308 95.2021 63.3671L91.4859 36.0032C91.1763 33.6581 90.8667 31.4693 90.557 29.2805L90.5569 29.2795C90.2472 27.0903 91.0214 25.2139 92.7247 23.963L95.8215 21.3048C98.4538 19.1157 101.086 16.9266 103.564 14.7375C105.422 13.1738 106.815 11.6101 107.744 10.0465Z" fill="white"/>
<path d="M41.6789 60.574C41.2084 59.9608 40.1105 59.8075 39.4832 60.2674L0.587255 89.2406C-0.0400984 89.7005 -0.196937 90.7736 0.273578 91.3868C0.587255 91.8467 1.05777 92 1.52828 92C1.84196 92 2.15564 91.8467 2.46931 91.6934L41.3652 62.7202C42.1494 62.2603 42.1494 61.3405 41.6789 60.574Z" fill="white"/>
<path d="M47.7254 67.5793C47.0956 66.9604 46.1509 66.8057 45.3637 67.2699L21.5895 85.2154C20.9597 85.6795 20.8023 86.7624 21.2746 87.3812C21.5895 87.8453 22.0619 88 22.5342 88C22.8491 88 23.164 87.8453 23.4789 87.6906L47.4105 69.7451C48.0403 69.281 48.1977 68.1981 47.7254 67.5793Z" fill="white"/>
<path d="M18.7255 88.5799C18.2535 87.9604 17.1521 87.8055 16.5227 88.2701L12.5891 91.2125C11.9598 91.6771 11.8024 92.7611 12.2745 93.3806C12.5891 93.8451 13.0612 94 13.5332 94C13.8479 94 14.1626 93.8451 14.4773 93.6903L18.4109 90.7479C19.0402 90.2833 19.1976 89.1993 18.7255 88.5799Z" fill="white"/>
<path d="M13.7255 70.5799C13.2535 69.9604 12.1521 69.8055 11.5227 70.2701L7.58915 73.2125C6.95977 73.6771 6.80243 74.7611 7.27446 75.3806C7.58915 75.8451 8.06118 76 8.53321 76C8.84789 76 9.16258 75.8451 9.47727 75.6903L13.4109 72.7479C14.0402 72.2833 14.1976 71.1993 13.7255 70.5799Z" fill="white"/>
<path d="M35.7355 53.58C35.2806 52.9604 34.2191 52.8055 33.6126 53.2702L15.5678 67.2117C14.9612 67.6764 14.8096 68.7608 15.2645 69.3804C15.5678 69.6902 16.0227 70 16.4776 70C16.7809 70 17.0841 69.8451 17.3874 69.6902L35.4322 55.7487C36.0388 55.284 36.1904 54.1996 35.7355 53.58Z" fill="white"/>
</svg>
