<svg width="91" height="91" viewBox="0 0 91 91" fill="none" xmlns="http://www.w3.org/2000/svg">
<g id="airport">
<path id="Shape" fill-rule="evenodd" clip-rule="evenodd" d="M89.4843 18.2H89.4826H87.1217L90.9029 8.11665C91.1972 7.33215 90.8 6.45779 90.0155 6.16337C89.8451 6.09948 89.6646 6.06668 89.4826 6.06668H78.866V0H75.8327V6.06668H65.2161C64.3784 6.06668 63.6991 6.74577 63.6991 7.58354C63.6991 7.76554 63.7319 7.94602 63.7958 8.11646L67.577 18.1998H65.2161C64.3789 18.1993 63.7 18.8776 63.6995 19.7148V19.7165V37.9166C63.6989 38.7538 64.3772 39.4327 65.2144 39.4332H65.2161H71.2827V50.0499H65.2161C64.3789 50.0493 63.7 50.7277 63.6995 51.5649V51.5666V69.7666H1.51665C0.679462 69.7661 0.00056946 70.4444 3.56941e-07 71.2816V71.2833V89.4833C-0.000568031 90.3205 0.677755 90.9994 1.51495 91H1.51665H89.4826C90.3198 91.0006 90.9987 90.3222 90.9992 89.485V89.4833V51.5666C90.9998 50.7294 90.3215 50.0505 89.4843 50.0499H89.4826H83.416V39.4332H89.4826C90.3198 39.4338 90.9987 38.7555 90.9992 37.9183V37.9166V19.7165C90.9996 18.8795 90.3215 18.2004 89.4843 18.2ZM67.4052 9.10002H87.2935L83.881 18.2H70.8177L67.4052 9.10002ZM87.9659 87.9669V53.0834H66.7328V71.2835V71.2852C66.7322 72.1224 66.0533 72.8007 65.2161 72.8001H3.03331V87.9669H87.9659ZM74.316 50.0501V39.4334H80.3827V50.0501H74.316ZM66.7328 36.4001H87.9659V21.2334H66.7328V36.4001Z" fill="white"/>
<path id="Shape_2" fill-rule="evenodd" clip-rule="evenodd" d="M16.375 76H16.3768C17.2738 76.0004 18.0004 76.672 18 77.5V83.5V83.5017C17.9994 84.3297 17.272 85.0006 16.375 85H6.625H6.62317C5.72617 84.9994 4.99939 84.328 5 83.5V77.5V77.4983C5.00061 76.6703 5.728 75.9994 6.625 76H16.375ZM8.25 82H14.75V79H8.25V82Z" fill="white"/>
<path id="Shape_3" fill-rule="evenodd" clip-rule="evenodd" d="M32.375 76H32.3768C33.2738 76.0004 34.0004 76.672 34 77.5V83.5V83.5017C33.9994 84.3297 33.272 85.0006 32.375 85H22.625H22.6232C21.7262 84.9994 20.9994 84.328 21 83.5V77.5V77.4983C21.0006 76.6703 21.728 75.9994 22.625 76H32.375ZM24.25 82H30.75V79H24.25V82Z" fill="white"/>
<path id="Shape_4" fill-rule="evenodd" clip-rule="evenodd" d="M47.375 76H47.3768C48.2738 76.0004 49.0004 76.672 49 77.5V83.5V83.5017C48.9994 84.3297 48.272 85.0006 47.375 85H37.625H37.6232C36.7262 84.9994 35.9994 84.328 36 83.5V77.5V77.4983C36.0006 76.6703 36.728 75.9994 37.625 76H47.375ZM39.25 82H45.75V79H39.25V82Z" fill="white"/>
<path id="Shape_5" fill-rule="evenodd" clip-rule="evenodd" d="M62.375 76H62.3768C63.2738 76.0004 64.0004 76.672 64 77.5V83.5V83.5017C63.9994 84.3297 63.272 85.0006 62.375 85H52.625H52.6232C51.7262 84.9994 50.9994 84.328 51 83.5V77.5V77.4983C51.0006 76.6703 51.728 75.9994 52.625 76H62.375ZM54.25 82H60.75V79H54.25V82Z" fill="white"/>
<path id="Shape_6" fill-rule="evenodd" clip-rule="evenodd" d="M82.375 56H82.3768C83.2738 56.0004 84.0004 56.6838 84 57.5263V83.4737V83.4754C83.9994 84.3179 83.272 85.0006 82.375 85H72.625H72.6232C71.7262 84.9994 70.9994 84.3162 71 83.4737V57.5263V57.5246C71.0006 56.6821 71.728 55.9994 72.625 56H82.375ZM74.25 81.9474H80.75V59.0526H74.25V81.9474Z" fill="white"/>
<path id="Shape_7" fill-rule="evenodd" clip-rule="evenodd" d="M73 28.5C73 26.0147 75.0147 24 77.5 24C79.9842 24.0026 81.9972 26.0158 82 28.5C82 30.9853 79.9853 33 77.5 33C75.0147 33 73 30.9853 73 28.5ZM76 28.5C76 29.3284 76.6716 30 77.5 30C78.3282 29.9994 78.9994 29.3282 79 28.5C79 27.6716 78.3284 27 77.5 27C76.6716 27 76 27.6716 76 28.5Z" fill="white"/>
<path id="Rectangle-path" d="M78 13H81V16H78V13Z" fill="white"/>
<path id="Rectangle-path_2" d="M73 13H76V16H73V13Z" fill="white"/>
<path id="Shape_8" fill-rule="evenodd" clip-rule="evenodd" d="M48.3181 30.8832C48.4863 30.9953 48.6306 31.1396 48.7428 31.3079C49.2117 32.0114 49.0216 32.9621 48.3179 33.4312L39.3835 39.3839L33.4306 48.3181C33.1481 48.7428 32.6725 48.9985 32.1626 49H32.1567C31.6493 49.0002 31.1748 48.7487 30.8902 48.3286L27.8278 43.8159C27.5976 43.4772 27.5126 43.0605 27.5917 42.6586L28.9494 35.7998L20.1063 28.2203L11.0507 39.4062C10.5529 40.0206 9.66942 40.1554 9.0112 39.7173L4.49844 36.7088C3.9141 36.3191 3.66988 35.5818 3.90625 34.9204L9.72454 18.625L2.06865 11.7529L2.06856 11.7528C2.0462 11.731 2.02383 11.7092 2.00185 11.687C-0.670438 9.01022 -0.666802 4.67403 2.00989 2.0018C4.68658 -0.670422 9.02287 -0.666786 11.6954 2.00984L18.6245 9.72679L34.9201 3.90731C35.5813 3.66902 36.32 3.91362 36.7085 4.49948L39.7171 9.01213C40.1552 9.67033 40.0204 10.5538 39.406 11.0516L28.2198 20.1068L35.798 28.9482L42.5746 27.5935C42.9729 27.5141 43.3865 27.5958 43.7245 27.8209L48.3181 30.8832ZM37.0059 37.4311C37.1185 37.2632 37.2628 37.1189 37.4306 37.0064L44.7083 32.1573L42.5536 30.7203L35.5197 32.1274C34.9767 32.2351 34.4178 32.042 34.0573 31.6219L24.8702 20.9039C24.8649 20.8977 24.8596 20.8915 24.8544 20.8853C24.8495 20.8794 24.8446 20.8734 24.8398 20.8674C24.3094 20.2105 24.4122 19.248 25.069 18.7178L36.3948 9.54899L34.8232 7.19237L18.6859 12.955C18.1008 13.1665 17.4461 13.0008 17.0321 12.5364L9.47342 4.11516C7.98531 2.69196 5.63323 2.71742 4.17651 4.17277C2.69624 5.65185 2.69509 8.05077 4.17402 9.531L12.5356 17.0324C12.9976 17.4478 13.1632 18.1012 12.9542 18.6863L7.19139 34.8232L9.54807 36.3947L18.7171 25.0696C18.7271 25.0573 18.7372 25.0451 18.7476 25.033C19.298 24.393 20.2633 24.3203 20.9033 24.8707L31.6215 34.0576C32.0415 34.417 32.2351 34.9747 32.1283 35.517L30.7212 42.6255L32.1448 44.7249L37.0059 37.4311Z" fill="white"/>
</g>
</svg>
