<svg width="49" height="40" viewBox="0 0 49 40" fill="none" xmlns="http://www.w3.org/2000/svg">
<path fill-rule="evenodd" clip-rule="evenodd" d="M41.0375 0H7.9625H0V40H49V0H41.0375ZM8.16667 1.63265H40.8333H47.3667V5.71429H1.63333V1.63265H8.16667ZM1.63333 7.34694V38.3673H47.3667V7.34694H1.63333Z" fill="#555555"/>
<path d="M18.5 13C18.7761 13 19 12.7761 19 12.5C19 12.2239 18.7761 12 18.5 12C18.2239 12 18 12.2239 18 12.5C18 12.7761 18.2239 13 18.5 13Z" fill="#555555"/>
<path d="M24.5 13C24.7761 13 25 12.7761 25 12.5C25 12.2239 24.7761 12 24.5 12C24.2239 12 24 12.2239 24 12.5C24 12.7761 24.2239 13 24.5 13Z" fill="#555555"/>
<path d="M30.5 13C30.7761 13 31 12.7761 31 12.5C31 12.2239 30.7761 12 30.5 12C30.2239 12 30 12.2239 30 12.5C30 12.7761 30.2239 13 30.5 13Z" fill="#555555"/>
<path d="M35.5 13C35.7761 13 36 12.7761 36 12.5C36 12.2239 35.7761 12 35.5 12C35.2239 12 35 12.2239 35 12.5C35 12.7761 35.2239 13 35.5 13Z" fill="#555555"/>
<path d="M41.5 13C41.7761 13 42 12.7761 42 12.5C42 12.2239 41.7761 12 41.5 12C41.2239 12 41 12.2239 41 12.5C41 12.7761 41.2239 13 41.5 13Z" fill="#555555"/>
<path d="M6.5 20C6.77614 20 7 19.7761 7 19.5C7 19.2239 6.77614 19 6.5 19C6.22386 19 6 19.2239 6 19.5C6 19.7761 6.22386 20 6.5 20Z" fill="#555555"/>
<path d="M12.5 20C12.7761 20 13 19.7761 13 19.5C13 19.2239 12.7761 19 12.5 19C12.2239 19 12 19.2239 12 19.5C12 19.7761 12.2239 20 12.5 20Z" fill="#555555"/>
<path d="M18.5 20C18.7761 20 19 19.7761 19 19.5C19 19.2239 18.7761 19 18.5 19C18.2239 19 18 19.2239 18 19.5C18 19.7761 18.2239 20 18.5 20Z" fill="#555555"/>
<path d="M24.5 20C24.7761 20 25 19.7761 25 19.5C25 19.2239 24.7761 19 24.5 19C24.2239 19 24 19.2239 24 19.5C24 19.7761 24.2239 20 24.5 20Z" fill="#555555"/>
<path d="M30.5 20C30.7761 20 31 19.7761 31 19.5C31 19.2239 30.7761 19 30.5 19C30.2239 19 30 19.2239 30 19.5C30 19.7761 30.2239 20 30.5 20Z" fill="#555555"/>
<path d="M35.5 20C35.7761 20 36 19.7761 36 19.5C36 19.2239 35.7761 19 35.5 19C35.2239 19 35 19.2239 35 19.5C35 19.7761 35.2239 20 35.5 20Z" fill="#555555"/>
<path d="M41.5 20C41.7761 20 42 19.7761 42 19.5C42 19.2239 41.7761 19 41.5 19C41.2239 19 41 19.2239 41 19.5C41 19.7761 41.2239 20 41.5 20Z" fill="#555555"/>
<path d="M6.5 26C6.77614 26 7 25.7761 7 25.5C7 25.2239 6.77614 25 6.5 25C6.22386 25 6 25.2239 6 25.5C6 25.7761 6.22386 26 6.5 26Z" fill="#555555"/>
<path d="M12.5 26C12.7761 26 13 25.7761 13 25.5C13 25.2239 12.7761 25 12.5 25C12.2239 25 12 25.2239 12 25.5C12 25.7761 12.2239 26 12.5 26Z" fill="#555555"/>
<path d="M18.5 26C18.7761 26 19 25.7761 19 25.5C19 25.2239 18.7761 25 18.5 25C18.2239 25 18 25.2239 18 25.5C18 25.7761 18.2239 26 18.5 26Z" fill="#555555"/>
<path d="M24.5 26C24.7761 26 25 25.7761 25 25.5C25 25.2239 24.7761 25 24.5 25C24.2239 25 24 25.2239 24 25.5C24 25.7761 24.2239 26 24.5 26Z" fill="#555555"/>
<path d="M30.5 26C30.7761 26 31 25.7761 31 25.5C31 25.2239 30.7761 25 30.5 25C30.2239 25 30 25.2239 30 25.5C30 25.7761 30.2239 26 30.5 26Z" fill="#555555"/>
<path d="M35.5 26C35.7761 26 36 25.7761 36 25.5C36 25.2239 35.7761 25 35.5 25C35.2239 25 35 25.2239 35 25.5C35 25.7761 35.2239 26 35.5 26Z" fill="#555555"/>
<path d="M41.5 26C41.7761 26 42 25.7761 42 25.5C42 25.2239 41.7761 25 41.5 25C41.2239 25 41 25.2239 41 25.5C41 25.7761 41.2239 26 41.5 26Z" fill="#555555"/>
<path d="M6.5 32C6.77614 32 7 31.7761 7 31.5C7 31.2239 6.77614 31 6.5 31C6.22386 31 6 31.2239 6 31.5C6 31.7761 6.22386 32 6.5 32Z" fill="#555555"/>
<path d="M12.5 32C12.7761 32 13 31.7761 13 31.5C13 31.2239 12.7761 31 12.5 31C12.2239 31 12 31.2239 12 31.5C12 31.7761 12.2239 32 12.5 32Z" fill="#555555"/>
<path d="M18.5 32C18.7761 32 19 31.7761 19 31.5C19 31.2239 18.7761 31 18.5 31C18.2239 31 18 31.2239 18 31.5C18 31.7761 18.2239 32 18.5 32Z" fill="#555555"/>
<path d="M24.5 32C24.7761 32 25 31.7761 25 31.5C25 31.2239 24.7761 31 24.5 31C24.2239 31 24 31.2239 24 31.5C24 31.7761 24.2239 32 24.5 32Z" fill="#555555"/>
<path d="M30.5 32C30.7761 32 31 31.7761 31 31.5C31 31.2239 30.7761 31 30.5 31C30.2239 31 30 31.2239 30 31.5C30 31.7761 30.2239 32 30.5 32Z" fill="#555555"/>
</svg>
