<svg width="101" height="71" viewBox="0 0 101 71" fill="none" xmlns="http://www.w3.org/2000/svg">
<path fill-rule="evenodd" clip-rule="evenodd" d="M93.1094 1.97222C93.1094 5.23467 95.7642 7.88889 99.0273 7.88889C100.117 7.88889 101 8.77185 101 9.86111V61.1389C101 62.2281 100.117 63.1111 99.0273 63.1111C95.7642 63.1111 93.1094 65.7653 93.1094 69.0278C93.1094 70.117 92.2262 71 91.1367 71H9.86328C8.77378 71 7.89062 70.117 7.89062 69.0278C7.89062 65.7653 5.23582 63.1111 1.97266 63.1111C0.883158 63.1111 0 62.2281 0 61.1389V9.86111C0 8.77185 0.883158 7.88889 1.97266 7.88889C5.23582 7.88889 7.89062 5.23467 7.89062 1.97222C7.89062 0.882964 8.77378 0 9.86328 0H91.1367C92.2262 0 93.1094 0.882964 93.1094 1.97222ZM89.3621 67.0558C90.1488 63.1979 93.196 60.1512 97.0547 59.3649V11.6353C93.196 10.8488 90.1486 7.80231 89.3621 3.94444H71.0156V9.86111C71.0156 10.9504 70.1325 11.8333 69.043 11.8333C67.9535 11.8333 67.0703 10.9504 67.0703 9.86111V3.94444H11.6379C10.8512 7.80231 7.80403 10.8488 3.94531 11.6353V59.3647C7.80403 60.1512 10.8512 63.1977 11.6379 67.0558H67.0703V61.1391C67.0703 60.0498 67.9535 59.1669 69.043 59.1669C70.1325 59.1669 71.0156 60.0498 71.0156 61.1391V67.0558H89.3621Z" fill="white"/>
<path fill-rule="evenodd" clip-rule="evenodd" d="M49.9297 28.3306C54.9925 28.0952 59.8678 30.6094 62.6703 34.8906C63.1099 35.5624 63.1099 36.4374 62.6703 37.109C59.8678 41.3904 54.9931 43.9034 49.9423 43.6698L44.7464 43.3946L35.2048 59.0542C34.8465 59.6422 34.2152 60 33.5356 60H29.607C29.0167 60 28.4577 59.7296 28.0847 59.2638C27.7119 58.7978 27.5643 58.186 27.6832 57.5972L30.7017 42.648C27.6629 42.4828 25.8459 42.3887 24.7214 42.3304C22.9088 42.2366 22.8956 42.2359 22.465 42.1806L17.4433 49.1798C17.0735 49.6952 16.4842 50 15.8572 50H9.96431C9.31374 50 8.7052 49.672 8.33945 49.124C7.97389 48.576 7.89847 47.8794 8.13811 47.2634C9.56713 43.591 11.7887 37.8428 12.4668 36C11.7887 34.1572 9.56713 28.409 8.1383 24.7366C7.89847 24.1208 7.97409 23.424 8.33964 22.876C8.7052 22.328 9.31354 22 9.96431 22H15.8572C16.4842 22 17.0735 22.3048 17.4433 22.8202L22.4652 29.8196C22.8994 29.7639 22.9193 29.7629 24.7227 29.6695C25.8463 29.6114 27.6622 29.5174 30.7019 29.352L27.6834 14.4028C27.5643 13.814 27.7119 13.2022 28.0849 12.7362C28.4577 12.2704 29.0169 12 29.6072 12H33.5358C34.2154 12 34.8467 12.3578 35.2048 12.9456L44.7464 28.6052L49.9297 28.3306ZM43.7911 39.3388L50.1338 39.6748C53.3425 39.8226 56.4669 38.4392 58.5663 36C56.4667 33.5608 53.3444 32.1756 50.1212 32.326L43.7911 32.6612C43.0751 32.6992 42.3973 32.3378 42.0199 31.7184L32.4426 16H32.0164L35.01 30.8252C35.1253 31.396 34.9903 31.9896 34.6403 32.4508C34.2901 32.9122 33.7599 33.1948 33.1883 33.2252C28.7864 33.4823 26.4267 33.5937 25.0427 33.659C23.1025 33.7506 23.0794 33.7517 22.0353 33.9366L21.9225 33.9566C21.1871 34.0872 20.4416 33.78 20.0008 33.1658L14.8595 26H12.8544C16.5113 35.4158 16.5113 35.5412 16.5113 36C16.5113 36.4588 16.5113 36.5842 12.8544 46H14.8595L20.001 38.8342C20.4416 38.2198 21.1865 37.913 21.9227 38.0434L22.0354 38.0634C23.079 38.2482 23.0952 38.249 25.0279 38.3402C26.4098 38.4054 28.7713 38.5168 33.1885 38.7748C33.7603 38.8052 34.2904 39.088 34.6405 39.5492C34.9903 40.0102 35.1255 40.604 35.0102 41.1748L32.0166 56H32.4428L42.0199 40.2816C42.3973 39.6622 43.0759 39.2998 43.7911 39.3388Z" fill="white"/>
<path d="M69 16C67.8954 16 67 16.8954 67 18V22C67 23.1046 67.8954 24 69 24C70.1046 24 71 23.1046 71 22V18C71 16.8954 70.1046 16 69 16Z" fill="white"/>
<path d="M69 31C67.8954 31 67 31.8954 67 33V37C67 38.1046 67.8954 39 69 39C70.1046 39 71 38.1046 71 37V33C71 31.8954 70.1046 31 69 31Z" fill="white"/>
<path d="M69 48C67.8954 48 67 48.8954 67 50V54C67 55.1046 67.8954 56 69 56C70.1046 56 71 55.1046 71 54V50C71 48.8954 70.1046 48 69 48Z" fill="white"/>
<path d="M91.0435 16H76.9565C75.8759 16 75 16.8954 75 18C75 19.1046 75.8759 20 76.9565 20H91.0435C92.1241 20 93 19.1046 93 18C93 16.8954 92.1241 16 91.0435 16Z" fill="white"/>
<path d="M91.0435 28H76.9565C75.8759 28 75 28.8954 75 30C75 31.1046 75.8759 32 76.9565 32H91.0435C92.1241 32 93 31.1046 93 30C93 28.8954 92.1241 28 91.0435 28Z" fill="white"/>
<path d="M91.0435 40H76.9565C75.8759 40 75 40.8954 75 42C75 43.1046 75.8759 44 76.9565 44H91.0435C92.1241 44 93 43.1046 93 42C93 40.8954 92.1241 40 91.0435 40Z" fill="white"/>
<path d="M91.0435 51H76.9565C75.8759 51 75 51.8954 75 53C75 54.1046 75.8759 55 76.9565 55H91.0435C92.1241 55 93 54.1046 93 53C93 51.8954 92.1241 51 91.0435 51Z" fill="white"/>
</svg>
