<svg width="96" height="68" viewBox="0 0 96 68" fill="none" xmlns="http://www.w3.org/2000/svg">
<path fill-rule="evenodd" clip-rule="evenodd" d="M82.6798 13.173L92.2809 22.0506C94.8674 24.3677 96.2127 27.6851 95.9726 31.1563C95.7324 34.6252 93.9449 37.7225 91.067 39.6588L84.7496 44.0831V53.8958C84.7496 63.1552 66.2621 68 48 68C29.7379 68 11.2504 63.1552 11.2504 53.8958V44.0832L4.933 39.659C2.05506 37.7227 0.267628 34.6256 0.0274407 31.1565C-0.212746 27.6851 1.13256 24.3677 3.71969 22.0508L13.3585 13.1385C22.86 4.66762 35.1611 0.00150447 47.9953 0H48.0015C60.8372 0 73.1383 4.66555 82.6421 13.1385L82.6798 13.173ZM48 62.3582C56.7343 62.3582 64.929 61.2353 71.075 59.1962C74.8025 57.9595 76.9228 56.6663 78.0412 55.6238C58.5493 49.7698 37.4505 49.7698 17.9584 55.6238C19.0772 56.6663 21.1975 57.9595 24.925 59.1962C31.071 61.2351 39.2657 62.3582 48 62.3582ZM79.1246 50.0575C58.9114 44.1005 37.0886 44.1005 16.8754 50.0575V44.6675C37.027 38.3715 58.973 38.3715 79.1246 44.6675V50.0575ZM87.9196 34.9831C89.3519 34.0253 90.2418 32.4881 90.3611 30.7655C90.4803 29.0429 89.8108 27.3968 88.5238 26.2494L88.4861 26.215L78.8861 17.3385C61.274 1.65379 34.7261 1.65379 17.1141 17.3385L7.47643 26.2494C6.18962 27.3968 5.51987 29.0429 5.63931 30.7655C5.75837 32.4881 6.64824 34.0253 8.08074 34.9831L8.13099 35.0175L14.5253 39.4957C36.1703 32.5763 59.8303 32.5763 81.4753 39.4957L87.9196 34.9831Z" fill="white"/>
</svg>
