<svg width="87" height="87" viewBox="0 0 87 87" fill="none" xmlns="http://www.w3.org/2000/svg">
<path fill-rule="evenodd" clip-rule="evenodd" d="M3.52856 26.3784C10.3793 10.3746 26.11 -0.00253657 43.5154 4.65093e-07C67.5349 0.00344468 87.0036 19.4822 87 43.5065C86.9964 67.5308 67.5219 87.0036 43.5025 87C37.8956 87.0031 32.3413 85.9214 27.1454 83.8142C4.89871 74.7923 -5.82344 49.4403 3.19658 27.1889L2.98638 26.5582L3.52856 26.3784ZM75.3959 63.1997L77.6292 65.432C85.5121 53.2121 86.2308 37.7005 79.5116 24.8037L71.5005 27.4746C71.2766 27.5498 71.0377 27.5688 70.8047 27.5297L62.1065 26.0797C61.7113 26.0143 61.3606 25.7879 61.1381 25.4547L58.6736 21.75H51.3512L47.9401 25.1604L49.1709 33.785L58.1169 37.6246L63.4431 36.2935C63.8407 36.1933 64.262 36.2659 64.6029 36.4936L68.952 39.3936C69.3552 39.6626 69.5971 40.1153 69.5971 40.6V46.0578L75.2509 57.3518C75.3488 57.5538 75.3984 57.7756 75.3959 58V63.1997ZM71.6499 14.2883L69.2927 15.8601L62.7212 14.5449L58.4576 13.1254C58.1967 13.0368 57.9158 13.0255 57.6487 13.0935L52.2587 14.4406L49.8957 13.6532L51.6469 10.15H56.5498C56.7747 10.1502 56.9965 10.0982 57.1978 9.99775L62.2138 7.48925C65.6681 9.29269 68.8458 11.5822 71.6499 14.2883ZM31.1033 8.45785L27.624 6.13785C18.0808 10.2239 10.4523 17.793 6.29024 27.3049L8.47783 33.8691L14.5086 37.8914V35.4003L12.0339 32.9251C11.7621 32.6533 11.6092 32.2846 11.6092 31.9V27.55C11.6101 26.8283 12.1414 26.2169 12.8559 26.1159L22.7139 24.708L29.4013 20.6944L33.5649 13.7547C33.7432 13.4585 34.0213 13.236 34.3491 13.1268L38.0096 11.9045L38.6953 9.85275L31.6701 8.68115C31.4675 8.6478 31.2743 8.57167 31.1033 8.45785ZM23.4967 53.679L16.9441 52.3667L14.5086 47.5078V44.1003L19.9101 38.6976L21.9093 42.6981C22.1548 43.1897 22.6573 43.5002 23.2068 43.5H32.5341L36.4614 50.0467C36.7234 50.483 37.1949 50.7498 37.7037 50.75H41.7339L40.7191 55.8351L35.2306 61.3248C34.9582 61.5965 34.8049 61.9652 34.8043 62.35V65.975L29.5854 69.89C29.2205 70.1639 29.0056 70.5936 29.0056 71.05V76.2874L27.2021 75.69L24.6565 69.3216V55.1C24.6566 54.4109 24.1717 53.8167 23.4967 53.679ZM4.68107 31.6448C-0.310238 47.9906 5.47025 65.7125 19.1389 75.9693C37.0668 89.4224 62.5039 85.7916 75.954 67.86L72.9213 64.8252C72.6494 64.5533 72.4965 64.1846 72.4965 63.8V58.3422L66.8427 47.0481C66.7448 46.8462 66.6952 46.6244 66.6977 46.4V41.3757L63.533 39.2616L58.3561 40.5565C58.0492 40.6344 57.7248 40.6085 57.4341 40.4825L47.2862 36.1325C46.8193 35.935 46.4895 35.5078 46.4164 35.0059L44.9667 24.8559C44.902 24.4039 45.0541 23.9477 45.377 23.6248L49.7261 19.2748C49.9979 19.003 50.3665 18.85 50.751 18.85H59.4492C59.9312 18.8524 60.3806 19.0941 60.6481 19.4952L63.1996 23.3232L70.9221 24.6108L78.0546 22.2328C76.7771 20.1646 75.3178 18.2144 73.6939 16.4053L70.3944 18.6064C70.0748 18.8206 69.6826 18.8978 69.3057 18.821L62.0572 17.371C61.998 17.3605 61.9398 17.3449 61.8833 17.3246L57.9343 16.0094L52.5443 17.3565C52.2772 17.4245 51.9963 17.4132 51.7354 17.3246L47.3863 15.8746C47.3216 15.853 47.2585 15.8269 47.1975 15.7965C46.4809 15.4392 46.1897 14.5685 46.5469 13.8519L49.4463 8.05185C49.6931 7.55794 50.1989 7.24692 50.751 7.25H56.2077L58.8563 5.9276C49.9792 2.28846 40.0985 1.92089 30.9757 4.89085L32.45 5.87395L40.8409 7.2732C40.9137 7.28553 40.9857 7.30329 41.0558 7.32649C41.816 7.5777 42.2286 8.39786 41.9775 9.1582L40.5278 13.5082C40.3855 13.9421 40.0452 14.2823 39.6115 14.4246L35.7713 15.7064L31.6976 22.4967C31.5755 22.7001 31.4052 22.8705 31.2018 22.9926L23.9534 27.3426C23.7877 27.4422 23.6038 27.5078 23.4126 27.5355L14.5086 28.8071V31.2997L16.9832 33.7748C17.255 34.0467 17.408 34.4154 17.408 34.8V37.0997L19.2897 35.2248C19.6164 34.8912 20.0863 34.7393 20.5466 34.8188C21.007 34.8932 21.4035 35.1846 21.6121 35.6018L24.1027 40.6H33.3546C33.8635 40.6002 34.335 40.867 34.597 41.3032L38.5243 47.85H43.5025C43.5977 47.85 43.6924 47.8594 43.7858 47.8781C44.571 48.0351 45.0802 48.7988 44.9232 49.5842L43.4735 56.8342C43.4175 57.1148 43.2798 57.3727 43.0778 57.5751L37.7037 62.9503V66.7C37.7037 67.1564 37.4888 67.5861 37.1239 67.86L31.905 71.775V78.3C31.905 79.1008 31.2559 79.75 30.4553 79.75C30.3019 79.7493 30.1497 79.7239 30.0044 79.6746L25.6553 78.2246C25.2505 78.0901 24.9254 77.784 24.7666 77.3879L21.8672 70.1379C21.7991 69.9669 21.7641 69.7841 21.7643 69.6V56.2875L15.6756 55.071C15.2361 54.984 14.8616 54.6987 14.6608 54.2981L11.7614 48.4981C11.661 48.2968 11.609 48.0749 11.6092 47.85V43.5C11.6092 43.1154 11.7621 42.7467 12.0339 42.4748L13.6822 40.8247L6.4555 36.0064C6.18767 35.8273 5.98725 35.564 5.88577 35.2582L4.68107 31.6448Z" fill="white"/>
</svg>
